# xmcd
#
# Track frame offsets: 
#        150
#        19551
#        46129
#        64860
#        79338
#        102779
#        122567
#        144477
#        167340
#        182749
#
# Disc length: 3142 seconds
#
# Revision: 0
# Processed by: cddbd v1.5.2PL0 Copyright (c) Steve Scherf et al.
# Submitted via: ExactAudioCopy v0.99pb5
#
DISCID=770c440a
DTITLE=King Hobo - King Hobo
DYEAR=2008
DGENRE=Blues
TTITLE0=Running
TTITLE1=Leaving Letter Blues
TTITLE2=Rolling In From The Sea
TTITLE3=Swede
TTITLE4=Moonshine
TTITLE5=Four Winds
TTITLE6=From Me To You
TTITLE7=Coffee Break
TTITLE8=Best Of Times
TTITLE9=Mr Clean
EXTD=
EXTT0=
EXTT1=
EXTT2=
EXTT3=
EXTT4=
EXTT5=
EXTT6=
EXTT7=
EXTT8=
EXTT9=
PLAYORDER=
